<?xml version="1.0" encoding="utf-8"?>
<!-- Generator: Adobe Illustrator 20.1.0, SVG Export Plug-In . SVG Version: 6.00 Build 0)  -->
<svg version="1.1" id="Calque_1" xmlns="http://www.w3.org/2000/svg" xmlns:xlink="http://www.w3.org/1999/xlink" x="0px" y="0px"
	 viewBox="0 0 134.5 132.5" style="enable-background:new 0 0 134.5 132.5;" xml:space="preserve">
<style type="text/css">
	.st0{fill:#10A2DC;}
	.st1{clip-path:url(#SVGID_2_);}
	.st2{fill:none;stroke:#004A7A;stroke-width:3;stroke-miterlimit:10;}
	.st3{fill:#FFFFFF;}
	.st4{clip-path:url(#SVGID_4_);}
	.st5{fill:none;stroke:#004A7A;stroke-width:3.503;stroke-linecap:round;stroke-linejoin:round;stroke-miterlimit:10;}
	.st6{fill:#004A7A;}
	.st7{fill:none;stroke:#004A7A;stroke-width:1.582;stroke-linecap:round;stroke-linejoin:round;stroke-miterlimit:10;}
	.st8{clip-path:url(#SVGID_6_);}
</style>
<g>
	<path class="st0" d="M8.6,56.1c3.8-21.7,18.8-38.6,38.1-45.7l0,0l20.5,55.9l-38.1,45.7l0,0C13.4,98.8,4.9,77.8,8.6,56.1"/>
	<g>
		<defs>
			<path id="SVGID_1_" d="M8.6,56.1c3.8-21.7,18.8-38.6,38.1-45.7l0,0l20.5,55.9l-38.1,45.7l0,0C13.4,98.8,4.9,77.8,8.6,56.1"/>
		</defs>
		<clipPath id="SVGID_2_">
			<use xlink:href="#SVGID_1_"  style="overflow:visible;"/>
		</clipPath>
		<g class="st1">
			<g>
				<g>
					<path class="st2" d="M27.4,86.5l2.3-0.4c2.8-0.5,4.7-3.1,4.2-5.9l-7.9-22.5c-0.5-2.8-3.1-4.7-5.9-4.2l-4.1,0.7l-4,8.8l-6.7-7
						l-4.1,0.7c-2.8,0.5-4.7,3.1-4.2,5.9l0,23.9c0.5,2.8,3.1,4.7,5.9,4.2l2.3-0.4L27.4,86.5z"/>
					<ellipse transform="matrix(0.9858 -0.1681 0.1681 0.9858 -6.8536 1.9807)" class="st2" cx="8.3" cy="41.5" rx="9.6" ry="9.6"/>
				</g>
				<g>
					<path class="st2" d="M69.2,79.3l2.3-0.4c2.8-0.5,4.7-3.1,4.2-5.9l-7.9-22.5c-0.5-2.8-3.1-4.7-5.9-4.2L57.8,47l-4,8.8l-6.7-7
						L43,49.5c-2.8,0.5-4.7,3.1-4.2,5.9l0,23.9c0.5,2.8,3.1,4.7,5.9,4.2l2.3-0.4L69.2,79.3z"/>
					<ellipse transform="matrix(0.9858 -0.1681 0.1681 0.9858 -5.061 8.9061)" class="st2" cx="50.1" cy="34.4" rx="9.6" ry="9.6"/>
				</g>
			</g>
			<g>
				<g>
					<g>
						
							<rect x="29.6" y="64.6" transform="matrix(0.9858 -0.1681 0.1681 0.9858 -10.7852 7.628)" class="st3" width="20.1" height="5.8"/>
					</g>
					<g>
						<g>
							<polygon class="st3" points="39.7,77.5 47.8,66.2 36.4,58.1 44.7,56.7 56,64.7 48,76.1 							"/>
						</g>
					</g>
				</g>
				<g>
					<g>
						
							<rect x="18.7" y="66.5" transform="matrix(0.9858 -0.1681 0.1681 0.9858 -11.2541 5.8162)" class="st3" width="20.1" height="5.8"/>
					</g>
					<g>
						<g>
							<polygon class="st3" points="29.1,59.3 21,70.7 32.4,78.8 24.1,80.2 12.7,72.1 20.8,60.7 							"/>
						</g>
					</g>
				</g>
			</g>
		</g>
	</g>
	<path class="st3" d="M105.4,20.6c16.9,14.1,24,35.6,20.5,55.9l0,0L67.2,66.3L46.7,10.4l0,0C66,3.3,88.4,6.5,105.4,20.6"/>
	<g>
		<defs>
			<path id="SVGID_3_" d="M105.4,20.6c16.9,14.1,24,35.6,20.5,55.9l0,0L67.2,66.3L46.7,10.4l0,0C66,3.3,88.4,6.5,105.4,20.6"/>
		</defs>
		<clipPath id="SVGID_4_">
			<use xlink:href="#SVGID_3_"  style="overflow:visible;"/>
		</clipPath>
		<g class="st4">
			<g>
				<polyline class="st5" points="75.1,49.6 85.8,14.3 115.1,23.2 114.1,26.5 113,30.1 100.3,72 71,63.1 72.4,58.3 				"/>
				<path class="st6" d="M89,63.6c-0.3,1.1-1.5,1.7-2.6,1.4c-1.1-0.3-1.7-1.5-1.4-2.6c0.3-1.1,1.5-1.7,2.6-1.4
					C88.7,61.3,89.4,62.5,89,63.6"/>
				<path class="st5" d="M87.9,20.3l25.2,7.6 M77.4,55.2l25.2,7.6"/>
			</g>
			<polyline class="st7" points="103.2,25.1 107,30.6 98.2,29.8 103.1,36.4 85,52.3 			"/>
		</g>
	</g>
	<path class="st6" d="M87.7,122.1c-20.7,7.6-42.8,3-58.6-10.2l0,0l38.1-45.7l58.6,10.2l0,0C122.3,96.7,108.4,114.5,87.7,122.1"/>
	<g>
		<defs>
			<path id="SVGID_5_" d="M87.7,122.1c-20.7,7.6-42.8,3-58.6-10.2l0,0l38.1-45.7l58.6,10.2l0,0C122.3,96.7,108.4,114.5,87.7,122.1"
				/>
		</defs>
		<clipPath id="SVGID_6_">
			<use xlink:href="#SVGID_5_"  style="overflow:visible;"/>
		</clipPath>
		<g class="st8">
			<path class="st3" d="M115.4,104.3c-0.1,0-0.1,0-0.2-0.1L91,95.7c-1-0.4-2.2,0.2-2.6,1.2c-0.4,1,0.2,2.2,1.2,2.6l24.1,8.5
				c0.6,0.3,1,0.7,1.1,1.2c0.1,0.3,0.1,0.5,0,0.6c0,0-0.1,0.2-0.2,0.3c0,0-0.2,0.2-0.6,0.3l-43.9,14.9c-0.5,0.2-0.8,0.1-1,0.1
				c-0.4-0.1-0.6-0.3-0.6-0.3l0,0c-0.3-0.2-0.6-0.5-0.7-0.7c-0.1-0.1-0.3-0.7,0.3-1.6c0,0,0-0.1,0.1-0.1l15.5-25.5
				c0.6-0.9,5.5-9.2,3.6-15.4c0-0.2-0.1-0.4-0.2-0.8c-1.9-5.5-7.9-8.5-13.4-6.6c-5.5,1.9-8.5,7.9-6.6,13.4c0,0,0,0,0,0c0,0,0,0,0,0
				c1.1,3.3,3.8,5.8,7.1,6.7c0.4,0.1,0.8,0.1,1.2,0c0.6-0.2,1.1-0.7,1.3-1.4c0.3-1.1-0.3-2.2-1.4-2.5c-0.5-0.2-1.1-0.4-1.5-0.7
				c-0.1-0.1-0.1-0.1-0.2-0.2c-1.3-0.8-2.2-2-2.7-3.4c-1.2-3.4,0.7-7.1,4.1-8.3c3.4-1.2,7.1,0.7,8.3,4c0,0,0.1,0.4,0.2,0.5
				c0,0.1,0,0.1,0,0.2c1.2,3.8-1.9,10-3.2,12.2l-15.4,25.5c-1.3,1.8-1.5,4-0.6,5.7c0.5,1,1.3,1.6,1.9,2c0.1,0.1,0.9,0.7,2.1,1
				c1,0.3,2.2,0.2,3.2-0.2l43.9-14.9c0.8-0.3,1.5-0.7,2-1.1c0.6-0.6,1-1.3,1.1-1.5c0.5-1.1,0.6-2.4,0.1-3.7
				C118.2,106.3,117,105.1,115.4,104.3z"/>
			<path class="st3" d="M77.3,116.7c0.4,1.1,1.5,1.6,2.6,1.3l19.9-6.8c1.1-0.4,1.6-1.5,1.3-2.6c-0.4-1.1-1.5-1.6-2.6-1.3l-19.9,6.8
				C77.5,114.5,76.9,115.7,77.3,116.7z"/>
		</g>
	</g>
</g>
</svg>
